<svg width="61" height="20" viewBox="0 0 61 20" fill="none" xmlns="http://www.w3.org/2000/svg">
<g clip-path="url(#clip0_4372_9058)">
<path d="M59.0117 12.2144L60.7014 13.3408C60.153 14.1486 58.8412 15.5344 56.5735 15.5344C53.7574 15.5344 51.6602 13.3556 51.6602 10.584C51.6602 7.63447 53.7797 5.63354 56.3364 5.63354C58.9079 5.63354 60.1678 7.67893 60.5754 8.78314L60.7977 9.34636L54.1724 12.0884C54.6764 13.0814 55.4619 13.5854 56.5735 13.5854C57.6852 13.5854 58.4559 13.037 59.0117 12.2144ZM53.8167 10.4283L58.241 8.59046C57.9964 7.97536 57.2701 7.53812 56.4031 7.53812C55.2989 7.53812 53.7648 8.51635 53.8167 10.4283Z" fill="white"/>
<path d="M48.4663 0.58667H50.6006V15.0822H48.4663V0.58667Z" fill="white"/>
<path d="M45.1014 6.01887H47.1616V14.8229C47.1616 18.4765 45.0051 19.9808 42.4558 19.9808C40.0547 19.9808 38.6095 18.3653 38.0686 17.0536L39.9583 16.268C40.2992 17.0758 41.1218 18.0318 42.4558 18.0318C44.0935 18.0318 45.1014 17.0165 45.1014 15.1194V14.4079H45.0273C44.5382 15.0008 43.6044 15.5344 42.4187 15.5344C39.9435 15.5344 37.6758 13.3778 37.6758 10.5988C37.6758 7.80488 39.9435 5.6261 42.4187 5.6261C43.597 5.6261 44.5382 6.15227 45.0273 6.73031H45.1014V6.01887ZM45.2496 10.5988C45.2496 8.8498 44.0861 7.57514 42.604 7.57514C41.107 7.57514 39.8472 8.8498 39.8472 10.5988C39.8472 12.3255 41.107 13.5779 42.604 13.5779C44.0861 13.5853 45.2496 12.3255 45.2496 10.5988Z" fill="white"/>
<path d="M25.9594 10.5617C25.9594 13.4149 23.7362 15.5121 21.009 15.5121C18.2818 15.5121 16.0586 13.4075 16.0586 10.5617C16.0586 7.69373 18.2818 5.60388 21.009 5.60388C23.7362 5.60388 25.9594 7.69373 25.9594 10.5617ZM23.7955 10.5617C23.7955 8.78312 22.506 7.56034 21.009 7.56034C19.512 7.56034 18.2226 8.78312 18.2226 10.5617C18.2226 12.3255 19.512 13.5631 21.009 13.5631C22.506 13.5631 23.7955 12.3255 23.7955 10.5617Z" fill="white"/>
<path d="M36.7719 10.584C36.7719 13.4371 34.5487 15.5344 31.8215 15.5344C29.0943 15.5344 26.8711 13.4371 26.8711 10.584C26.8711 7.71598 29.0943 5.63354 31.8215 5.63354C34.5487 5.63354 36.7719 7.70857 36.7719 10.584ZM34.6006 10.584C34.6006 8.80537 33.3111 7.58259 31.8141 7.58259C30.3171 7.58259 29.0276 8.80537 29.0276 10.584C29.0276 12.3477 30.3171 13.5854 31.8141 13.5854C33.3185 13.5854 34.6006 12.3403 34.6006 10.584Z" fill="white"/>
<path d="M7.92161 13.3629C4.81648 13.3629 2.38573 10.8581 2.38573 7.75295C2.38573 4.64782 4.81648 2.14297 7.92161 2.14297C9.59646 2.14297 10.8192 2.80253 11.7234 3.64736L13.2129 2.15779C11.9531 0.949825 10.2708 0.0308838 7.92161 0.0308838C3.6678 0.0308838 0.0883789 3.49915 0.0883789 7.75295C0.0883789 12.0068 3.6678 15.475 7.92161 15.475C10.219 15.475 11.9531 14.7191 13.3093 13.3111C14.7025 11.9178 15.1323 9.96138 15.1323 8.37546C15.1323 7.87894 15.073 7.36759 15.0064 6.98964H7.92161V9.04985H12.9684C12.8202 10.3393 12.4126 11.2212 11.8123 11.8215C11.086 12.5552 9.93735 13.3629 7.92161 13.3629Z" fill="white"/>
</g>
<defs>
<clipPath id="clip0_4372_9058">
<rect width="60.9091" height="19.9858" fill="white"/>
</clipPath>
</defs>
</svg>
