<svg width="79" height="24" viewBox="0 0 79 24" fill="none" xmlns="http://www.w3.org/2000/svg">
<path d="M7.99068 11.6027H0V4H7.99068V11.6027Z" fill="white"/>
<path d="M16.8133 11.6027H8.82275V4H16.8133V11.6027Z" fill="white"/>
<path d="M7.99049 19.9999H0V12.3972H7.99049V19.9999Z" fill="white"/>
<path d="M16.8133 19.9999H8.82275V12.3972H16.8133V19.9999Z" fill="white"/>
<path d="M78.7567 11.5092V10.1912H77.0364V8.14213L76.9785 8.15908L75.3628 8.62941L75.3309 8.63866V10.1912H72.7807V9.32639C72.7807 8.92367 72.8754 8.61546 73.0619 8.40992C73.2471 8.20684 73.5121 8.10362 73.8499 8.10362C74.0929 8.10362 74.3445 8.15808 74.5975 8.26547L74.661 8.29239V6.90432L74.6312 6.8939C74.395 6.81315 74.0738 6.77246 73.6757 6.77246C73.174 6.77246 72.718 6.87631 72.3205 7.08221C71.9226 7.28838 71.6096 7.58272 71.3905 7.95699C71.172 8.33081 71.0611 8.76254 71.0611 9.2403V10.1912H69.8633V11.5092H71.0611V17.0618H72.7807V11.5092H75.3309V15.0378C75.3309 16.491 76.0514 17.2275 77.4722 17.2275C77.7057 17.2275 77.9514 17.2014 78.2024 17.1504C78.4577 17.0981 78.6316 17.0458 78.734 16.99L78.7567 16.9773V15.6471L78.6868 15.6911C78.5934 15.7504 78.4772 15.7987 78.3409 15.8346C78.2041 15.8712 78.0898 15.8896 78.0013 15.8896C77.6684 15.8896 77.4222 15.8042 77.2693 15.6358C77.1148 15.4659 77.0364 15.1687 77.0364 14.753V11.5092H78.7567ZM66.0231 15.8897C65.399 15.8897 64.9069 15.6928 64.5601 15.3049C64.2112 14.915 64.0345 14.3593 64.0345 13.6531C64.0345 12.9246 64.2112 12.3544 64.5603 11.9577C64.9073 11.5635 65.3947 11.3635 66.0091 11.3635C66.6054 11.3635 67.08 11.5546 67.4199 11.9317C67.7617 12.3106 67.935 12.8763 67.935 13.6133C67.935 14.3594 67.772 14.9325 67.4504 15.3159C67.1311 15.6964 66.651 15.8897 66.0231 15.8897ZM66.0997 10.0257C64.9089 10.0257 63.9631 10.3576 63.2889 11.0124C62.615 11.6672 62.2732 12.5734 62.2732 13.706C62.2732 14.7816 62.6068 15.6469 63.2647 16.2773C63.9226 16.9079 64.8179 17.2274 65.9255 17.2274C67.0798 17.2274 68.0068 16.8908 68.6808 16.227C69.3548 15.5638 69.6963 14.6663 69.6963 13.5601C69.6963 12.4676 69.3758 11.5959 68.7436 10.9697C68.1111 10.3432 67.2214 10.0257 66.0997 10.0257ZM59.5007 10.0256C58.6908 10.0256 58.0208 10.2227 57.5089 10.6114C56.994 11.0024 56.7329 11.5152 56.7329 12.1357C56.7329 12.4582 56.7892 12.7448 56.9002 12.9877C57.0118 13.2316 57.1846 13.4462 57.4141 13.6264C57.6419 13.8051 57.9934 13.9923 58.4593 14.1827C58.8509 14.336 59.143 14.4658 59.3285 14.568C59.5099 14.6682 59.6387 14.7689 59.7113 14.867C59.7819 14.9629 59.8178 15.0943 59.8178 15.2565C59.8178 15.718 59.4545 15.9426 58.7069 15.9426C58.4297 15.9426 58.1134 15.8876 57.7669 15.7789C57.4202 15.6704 57.0962 15.5145 56.8042 15.3145L56.7329 15.2658V16.8409L56.759 16.8525C57.0024 16.9594 57.3091 17.0494 57.6707 17.1204C58.0315 17.1914 58.3594 17.2275 58.6443 17.2275C59.5232 17.2275 60.231 17.0294 60.7474 16.6385C61.2672 16.2448 61.5307 15.7199 61.5307 15.0779C61.5307 14.6148 61.3888 14.2176 61.1093 13.8973C60.8317 13.5796 60.35 13.288 59.6779 13.0301C59.1425 12.8257 58.7995 12.656 58.6581 12.5257C58.5217 12.3999 58.4524 12.2219 58.4524 11.9965C58.4524 11.7967 58.5379 11.6366 58.7134 11.507C58.8903 11.3766 59.1364 11.3104 59.4452 11.3104C59.7317 11.3104 60.0249 11.3534 60.3163 11.4378C60.6077 11.5222 60.8635 11.6352 61.0772 11.7735L61.1474 11.8192V10.325L61.1204 10.3139C60.9234 10.2335 60.6635 10.1647 60.348 10.1089C60.0337 10.0536 59.7486 10.0256 59.5007 10.0256ZM52.2499 15.8897C51.626 15.8897 51.1337 15.6928 50.787 15.3049C50.438 14.915 50.2616 14.3594 50.2616 13.6531C50.2616 12.9246 50.4382 12.3544 50.7874 11.9577C51.1341 11.5635 51.6214 11.3635 52.2361 11.3635C52.8322 11.3635 53.3068 11.5546 53.6468 11.9317C53.9886 12.3106 54.1619 12.8763 54.1619 13.6133C54.1619 14.3594 53.9988 14.9325 53.6772 15.3159C53.3579 15.6964 52.878 15.8897 52.2499 15.8897ZM52.3267 10.0257C51.1356 10.0257 50.1898 10.3576 49.5159 11.0124C48.842 11.6672 48.5 12.5734 48.5 13.706C48.5 14.7821 48.8338 15.6469 49.4917 16.2773C50.1495 16.9079 51.0448 17.2274 52.1525 17.2274C53.3065 17.2274 54.2337 16.8908 54.9078 16.227C55.5816 15.5638 55.9232 14.6663 55.9232 13.5601C55.9232 12.4676 55.6027 11.5959 54.9704 10.9697C54.3377 10.3432 53.4482 10.0257 52.3267 10.0257ZM45.8898 11.381V10.1912H44.1911V17.0616H45.8898V13.5471C45.8898 12.9495 46.0322 12.4586 46.3131 12.0878C46.5906 11.7214 46.9603 11.5357 47.4117 11.5357C47.5647 11.5357 47.7364 11.5597 47.9224 11.6072C48.1065 11.6544 48.2399 11.7056 48.3186 11.7595L48.3899 11.8087V10.1794L48.3624 10.1682C48.2042 10.1042 47.9804 10.0719 47.6973 10.0719C47.2705 10.0719 46.8884 10.2024 46.5613 10.4594C46.2741 10.6852 46.0664 10.9948 45.9078 11.381H45.8898ZM41.1493 10.0256C40.37 10.0256 39.6749 10.1847 39.0836 10.4981C38.4912 10.8122 38.033 11.2606 37.7213 11.8309C37.411 12.3999 37.2534 13.0644 37.2534 13.8054C37.2534 14.4546 37.4062 15.0503 37.7082 15.5753C38.0103 16.1012 38.4379 16.5126 38.9792 16.798C39.5198 17.083 40.1445 17.2275 40.8362 17.2275C41.6434 17.2275 42.3326 17.0739 42.8852 16.7711L42.9075 16.7589V15.2783L42.8362 15.3279C42.5859 15.5013 42.3061 15.6398 42.0051 15.7396C41.7049 15.8393 41.4312 15.8897 41.1913 15.8897C40.5247 15.8897 39.9897 15.6912 39.6013 15.3001C39.212 14.9083 39.0147 14.3583 39.0147 13.6661C39.0147 12.9696 39.2205 12.4055 39.6261 11.9892C40.0305 11.5741 40.5665 11.3636 41.2193 11.3636C41.7776 11.3636 42.3216 11.5435 42.8364 11.8987L42.9075 11.9479V10.3879L42.8846 10.3755C42.6908 10.2724 42.4267 10.1872 42.0987 10.1226C41.7722 10.0582 41.4528 10.0256 41.1493 10.0256ZM36.0836 10.1912H34.3849V17.0616H36.0836V10.1912ZM35.2516 7.26438C34.972 7.26438 34.7282 7.35491 34.5279 7.53435C34.3267 7.71432 34.2246 7.94088 34.2246 8.20822C34.2246 8.47138 34.3255 8.69377 34.5246 8.86895C34.7226 9.04358 34.9672 9.13212 35.2516 9.13212C35.5359 9.13212 35.7814 9.04358 35.9817 8.86922C36.1834 8.69377 36.2856 8.47138 36.2856 8.20822C36.2856 7.95021 36.1861 7.72592 35.99 7.54159C35.7942 7.35763 35.5457 7.26438 35.2516 7.26438ZM31.0135 9.68434V17.0616H32.747V7.47477H30.3478L27.2981 14.5955L24.3387 7.47477H21.8418V17.0616H23.4708V9.68361H23.5268L26.6519 17.0616H27.8812L30.9575 9.68434H31.0135Z" fill="white"/>
</svg>
