<svg width="75" height="17" viewBox="0 0 75 17" fill="none" xmlns="http://www.w3.org/2000/svg">
<g clip-path="url(#clip0_4372_9043)">
<path d="M6.13273 0.0218506L1.05679 0.0303273C0.887611 0.0304861 0.720935 0.0715637 0.570751 0.150113C0.420568 0.228662 0.29126 0.342391 0.193679 0.481756C0.096098 0.62112 0.033091 0.782054 0.00994567 0.951052C-0.0131997 1.12005 0.00419194 1.29218 0.0606609 1.453L2.80108 6.21831C2.95029 6.40608 3.13943 6.55764 3.35453 6.66182C3.56962 6.76599 3.80518 6.8201 4.04379 6.82015H6.3583C6.54787 6.8198 6.73421 6.86976 6.89857 6.96502C7.06293 7.06028 7.19954 7.19749 7.29467 7.36285C7.38979 7.52821 7.44009 7.7159 7.44049 7.90707C7.4409 8.09824 7.39141 8.28615 7.29699 8.45192L6.13833 10.468C6.01924 10.6765 5.94844 10.9094 5.93122 11.1494C5.91399 11.3894 5.95079 11.6303 6.03886 11.8539L8.78488 16.6319C8.89511 16.7618 9.03469 16.8631 9.19186 16.9272C9.34903 16.9913 9.51918 17.0164 9.68797 17.0004C9.85676 16.9843 10.0193 16.9275 10.1617 16.8349C10.3042 16.7423 10.4226 16.6164 10.5067 16.468L13.0286 12.0305L6.13273 0.0218506Z" fill="white"/>
<path d="M16.4696 6.00917L13.0217 0.010498L6.13281 0.0218003L13.0343 12.0304L16.4696 6.00917Z" fill="#EEEEEE"/>
<path d="M18.0636 0.00197786L13.0283 0.0104545L16.4763 6.00912L18.9897 1.60125C19.0824 1.4383 19.1307 1.2536 19.13 1.06578C19.1293 0.877951 19.0794 0.693644 18.9855 0.531445C18.8916 0.369246 18.7569 0.234891 18.595 0.141933C18.4332 0.0489746 18.2499 0.000699795 18.0636 0.00197786Z" fill="#DDDDDD"/>
<path d="M31.9115 2.51674C31.9095 2.59629 31.8889 2.67423 31.8513 2.7442L26.8412 12.9402C26.8223 13.0073 26.7831 13.0668 26.7291 13.1104C26.6751 13.1539 26.609 13.1794 26.5399 13.1832C26.4293 13.1832 26.3298 13.1027 26.2387 12.9402L21.2595 2.7442C21.2219 2.67423 21.2012 2.59629 21.1992 2.51674C21.1992 2.31471 21.3295 2.21299 21.5901 2.21299H23.2293C23.3427 2.20435 23.456 2.23171 23.5532 2.29125C23.6505 2.35079 23.7268 2.43952 23.7715 2.54499L26.5399 8.3374L29.3238 2.54499C29.3679 2.43886 29.444 2.34941 29.5413 2.28931C29.6386 2.22922 29.7522 2.20153 29.866 2.21017H31.522C31.7812 2.21299 31.9115 2.31471 31.9115 2.51674Z" fill="white"/>
<path d="M35.5387 16.4156H33.9976C33.737 16.4156 33.6067 16.3083 33.6067 16.0963C33.6094 16.0236 33.6245 15.9519 33.6515 15.8844L34.8564 12.9854L31.5514 5.51179C31.5227 5.43941 31.5075 5.36229 31.5066 5.28433C31.5049 5.24246 31.5129 5.20076 31.5299 5.16252C31.5469 5.12428 31.5725 5.09054 31.6046 5.06394C31.6851 5.00326 31.7846 4.97369 31.8848 4.98059H33.5409C33.6503 4.97518 33.7584 5.00572 33.8491 5.06763C33.9398 5.12954 34.0082 5.21947 34.0438 5.32389L36.0053 10.2856L37.7958 5.34085C37.8277 5.22767 37.8978 5.12929 37.9939 5.06273C38.0901 4.99617 38.2064 4.96561 38.3226 4.97635H39.9618C40.0697 4.96898 40.1766 5.00108 40.263 5.06677C40.2975 5.09669 40.3249 5.13409 40.3431 5.17616C40.3613 5.21823 40.3698 5.2639 40.3681 5.30976C40.3649 5.37786 40.3497 5.44483 40.3232 5.50755L36.0501 16.0681C36.0148 16.1748 35.9455 16.2667 35.853 16.3295C35.7605 16.3924 35.65 16.4227 35.5387 16.4156Z" fill="white"/>
<path d="M47.1548 13.1676C47.1132 13.1233 47.081 13.0709 47.0603 13.0135C47.0396 12.9562 47.0308 12.8951 47.0343 12.8342V12.4556C46.8345 12.7278 46.4982 12.9632 46.0256 13.162C45.5497 13.3653 45.0377 13.4686 44.5209 13.4657C43.7466 13.4848 42.9819 13.2894 42.3101 12.9006C41.6835 12.5281 41.1808 11.9764 40.8656 11.3155C40.5279 10.6328 40.3573 9.87854 40.3682 9.11577C40.3565 8.34712 40.5295 7.58704 40.8726 6.90053C41.1984 6.25544 41.6962 5.7148 42.3101 5.33941C42.979 4.9425 43.745 4.74279 44.5209 4.76299C45.0317 4.75313 45.5392 4.84931 46.0116 5.04555C46.4111 5.20634 46.7632 5.4675 47.0343 5.80421V5.3945C47.0308 5.33414 47.0401 5.27371 47.0616 5.21727C47.0831 5.16083 47.1163 5.10968 47.159 5.06726C47.2018 5.02484 47.253 4.99213 47.3093 4.97133C47.3656 4.95052 47.4257 4.94211 47.4855 4.94665H48.8095C48.8699 4.94199 48.9306 4.95056 48.9874 4.97178C49.0442 4.99299 49.0958 5.02635 49.1387 5.06956C49.1815 5.11277 49.2146 5.16481 49.2357 5.22211C49.2567 5.27942 49.2652 5.34064 49.2606 5.40157V12.8342C49.2652 12.8951 49.2567 12.9564 49.2357 13.0137C49.2146 13.071 49.1815 13.123 49.1387 13.1662C49.0958 13.2094 49.0442 13.2428 48.9874 13.264C48.9306 13.2852 48.8699 13.2938 48.8095 13.2891H47.4855C47.4251 13.2927 47.3645 13.2838 47.3077 13.2629C47.2508 13.242 47.1988 13.2096 47.1548 13.1676ZM46.5005 7.40207C46.2859 7.18384 46.0286 7.0131 45.7449 6.90072C45.4612 6.78834 45.1575 6.73679 44.8529 6.74936C44.1608 6.74936 43.6088 6.96834 43.1969 7.40207C42.785 7.83579 42.5805 8.40938 42.5805 9.11718C42.5682 9.42799 42.6178 9.73813 42.7263 10.0293C42.8349 10.3205 43.0001 10.5868 43.2123 10.8125C43.4248 11.0322 43.6806 11.2046 43.9631 11.3185C44.2457 11.4324 44.5488 11.4852 44.8529 11.4737C45.5553 11.4737 46.1092 11.2637 46.5146 10.8436C46.9199 10.4235 47.1231 9.84947 47.124 9.12142C47.124 8.41032 46.9162 7.8372 46.5005 7.40207Z" fill="white"/>
<path d="M52.3711 5.06549C52.4123 5.11035 52.4443 5.1631 52.4649 5.22061C52.4856 5.27812 52.4947 5.33923 52.4916 5.40032V5.77895C52.6924 5.50675 53.0286 5.27129 53.5003 5.07256C53.9753 4.86741 54.4869 4.76213 55.0036 4.76316C55.7733 4.74571 56.5331 4.94115 57.2004 5.32827C57.8267 5.70086 58.3334 6.24718 58.6603 6.90211C58.9962 7.59092 59.1666 8.34981 59.1577 9.11735C59.169 9.88515 58.9985 10.6446 58.6603 11.3326C58.3396 11.9789 57.8442 12.5206 57.2313 12.8951C56.5548 13.2887 55.7844 13.488 55.0036 13.4715C54.4932 13.4812 53.9863 13.3851 53.5143 13.189C53.1148 13.0282 52.7627 12.767 52.4916 12.4303V15.5257C52.4962 15.5867 52.4877 15.6479 52.4667 15.7052C52.4456 15.7625 52.4125 15.8145 52.3697 15.8577C52.3268 15.9009 52.2752 15.9343 52.2184 15.9555C52.1616 15.9767 52.1009 15.9853 52.0404 15.9806H50.7165C50.6559 15.9855 50.5951 15.9771 50.5381 15.956C50.4811 15.9349 50.4293 15.9015 50.3863 15.8583C50.3433 15.8151 50.31 15.763 50.2889 15.7055C50.2678 15.6481 50.2593 15.5868 50.2639 15.5257V5.40032C50.2595 5.33938 50.2682 5.27819 50.2894 5.22095C50.3106 5.16371 50.3439 5.11177 50.3868 5.06869C50.4298 5.02562 50.4815 4.99242 50.5384 4.97139C50.5953 4.95035 50.6561 4.94197 50.7165 4.94682H52.0404C52.1006 4.94308 52.161 4.95166 52.2178 4.97206C52.2746 4.99246 52.3268 5.02424 52.3711 5.06549ZM53.0254 10.8311C53.441 11.2662 53.9902 11.4838 54.673 11.4838C55.3557 11.4838 55.9077 11.2662 56.329 10.8311C56.74 10.3969 56.9454 9.82563 56.9454 9.11735C56.9574 8.80658 56.9076 8.49653 56.7991 8.2054C56.6906 7.91427 56.5255 7.64793 56.3136 7.42201C56.1009 7.20277 55.845 7.03082 55.5625 6.9172C55.2799 6.80358 54.9769 6.7508 54.673 6.76224C53.9715 6.76224 53.4172 6.97228 53.0099 7.39235C52.6027 7.81241 52.3986 8.38741 52.3977 9.11735C52.3977 9.82186 52.6069 10.3931 53.0254 10.8311Z" fill="white"/>
<path d="M66.8186 13.1676C66.777 13.1233 66.7449 13.0709 66.7241 13.0135C66.7034 12.9562 66.6946 12.8952 66.6981 12.8342V12.4556C66.4973 12.7278 66.1611 12.9633 65.6894 13.162C65.2135 13.3653 64.7015 13.4687 64.1847 13.4657C63.4104 13.4848 62.6457 13.2894 61.9739 12.9006C61.3455 12.5294 60.8407 11.9781 60.5238 11.3169C60.1861 10.6343 60.0156 9.87998 60.0264 9.1172C60.0147 8.34855 60.1877 7.58847 60.5308 6.90196C60.8564 6.25635 61.3542 5.7152 61.9683 5.33943C62.6372 4.94237 63.4032 4.74266 64.1791 4.76301C64.6899 4.75331 65.1973 4.84949 65.6698 5.04557C66.0693 5.20636 66.4214 5.46752 66.6925 5.80423V5.39452C66.6889 5.33365 66.6983 5.27269 66.7201 5.21582C66.742 5.15895 66.7757 5.1075 66.8191 5.06498C66.8624 5.02247 66.9144 4.98989 66.9714 4.96947C67.0284 4.94905 67.089 4.94127 67.1493 4.94667H68.4733C68.534 4.94117 68.5952 4.94907 68.6526 4.96982C68.71 4.99056 68.7623 5.02366 68.8057 5.06681C68.8492 5.10995 68.8828 5.16212 68.9043 5.21969C68.9257 5.27726 68.9345 5.33884 68.93 5.40017V12.8342C68.9346 12.8952 68.9261 12.9564 68.9051 13.0137C68.884 13.071 68.851 13.123 68.8081 13.1662C68.7653 13.2095 68.7136 13.2428 68.6568 13.264C68.6 13.2852 68.5393 13.2938 68.4789 13.2891H67.1549C67.0935 13.2936 67.032 13.285 66.9741 13.2641C66.9162 13.2432 66.8632 13.2103 66.8186 13.1676ZM66.1644 7.40209C65.9497 7.18386 65.6924 7.01311 65.4087 6.90074C65.125 6.78836 64.8213 6.73681 64.5167 6.74938C63.8246 6.74938 63.2726 6.96836 62.8607 7.40209C62.4488 7.83581 62.2443 8.4094 62.2443 9.1172C62.232 9.42801 62.2816 9.73815 62.3901 10.0293C62.4987 10.3205 62.6639 10.5868 62.8761 10.8125C63.0886 11.0322 63.3444 11.2046 63.6269 11.3185C63.9095 11.4324 64.2126 11.4853 64.5167 11.4737C65.2182 11.4737 65.7721 11.2637 66.1784 10.8436C66.5847 10.4236 66.7878 9.84949 66.7878 9.12144C66.7878 8.41034 66.58 7.83722 66.1644 7.40209Z" fill="white"/>
<path d="M74.8783 4.91429C74.9205 4.96138 74.9529 5.01652 74.9736 5.07646C74.9943 5.1364 75.0028 5.19991 74.9987 5.26325V6.55312C74.9987 6.82578 74.8474 6.97695 74.5462 7.00803C74.2144 7.03071 73.8888 7.11051 73.5837 7.24397C73.2519 7.38816 72.9547 7.60256 72.7123 7.87265C72.3499 8.26729 72.1691 8.84606 72.1701 9.60896V12.8343C72.1747 12.8954 72.1662 12.9567 72.1451 13.0142C72.1239 13.0716 72.0907 13.1237 72.0477 13.1669C72.0047 13.2102 71.9529 13.2435 71.8959 13.2646C71.8389 13.2857 71.7781 13.2941 71.7175 13.2893H70.3795C70.319 13.2941 70.2582 13.2857 70.2011 13.2646C70.1441 13.2435 70.0924 13.2102 70.0493 13.1669C70.0063 13.1237 69.9731 13.0716 69.952 13.0142C69.9309 12.9567 69.9224 12.8954 69.927 12.8343V5.40029C69.9226 5.33934 69.9313 5.27815 69.9525 5.22091C69.9737 5.16367 70.0069 5.11173 70.0499 5.06866C70.0929 5.02558 70.1446 4.99239 70.2015 4.97135C70.2584 4.95032 70.3191 4.94193 70.3795 4.94678H71.7175C71.7781 4.94191 71.8389 4.95032 71.8959 4.97144C71.9529 4.99256 72.0047 5.02588 72.0477 5.06911C72.0907 5.11235 72.1239 5.16446 72.1451 5.22188C72.1662 5.27929 72.1747 5.34064 72.1701 5.4017V6.0544C72.45 5.67818 72.8164 5.37614 73.2377 5.17424C73.6483 4.97299 74.0916 4.84808 74.5462 4.8055C74.6061 4.79771 74.6669 4.80343 74.7244 4.82224C74.7818 4.84106 74.8344 4.87249 74.8783 4.91429Z" fill="white"/>
</g>
<defs>
<clipPath id="clip0_4372_9043">
<rect width="75" height="17" fill="white"/>
</clipPath>
</defs>
</svg>
