<?xml version="1.0" encoding="UTF-8"?>
<!DOCTYPE svg PUBLIC "-//W3C//DTD SVG 1.1//EN" "http://www.w3.org/Graphics/SVG/1.1/DTD/svg11.dtd">
<!-- Creator: CorelDRAW -->
<svg xmlns="http://www.w3.org/2000/svg" xml:space="preserve" width="5.94013in" height="1.16751in" version="1.1" style="shape-rendering:geometricPrecision; text-rendering:geometricPrecision; image-rendering:optimizeQuality; fill-rule:evenodd; clip-rule:evenodd"
viewBox="0 0 5623.2 1105.22"
 xmlns:xlink="http://www.w3.org/1999/xlink"
 xmlns:xodm="http://www.corel.com/coreldraw/odm/2003">
 <defs>
  <style type="text/css">
   <![CDATA[
    .fil3 {fill:none}
    .fil1 {fill:#0A27C9}
    .fil2 {fill:#25A36F}
    .fil0 {fill:#0A27C9;fill-rule:nonzero}
   ]]>
  </style>
 </defs>
 <g id="Layer_x0020_1">
  <metadata id="CorelCorpID_0Corel-Layer"/>
  <g id="_2746731388224">
   <path class="fil0" d="M861.52 493.8c0,212.58 137.06,321.67 331.93,321.67 94.17,0 175.29,-26.11 232.17,-62.47l-32.64 -128.67c-43.82,28.9 -110.02,55.01 -185.55,55.01 -115.61,0 -187.41,-69.93 -187.41,-185.54 0,-113.75 71.8,-184.61 164.1,-184.61 26.11,0 51.28,0.93 73.66,3.73l10.26 46.64 148.25 0 0 -152c-72.73,-20.51 -131.47,-33.57 -229.37,-33.57 -186.48,0 -325.41,107.23 -325.41,319.81zm4027.92 202.32l0 110.96 247.08 0 0 -110.96 -27.97 0 55.94 -66.2 55.95 66.2 -28.91 0 0 110.96 247.09 0 0 -110.96 -61.54 0 -116.55 -130.54 114.68 -131.46 63.4 0 0 -110.02 -247.09 0 0 110.02 27.97 0 -55.01 68.06 -55.94 -68.06 27.97 0 0 -110.02 -247.08 0 0 110.02 64.34 0 114.68 131.46 -116.55 130.54 -62.47 0zm-3072.22 -133.33c0,78.32 -39.16,120.28 -95.1,120.28 -55.95,0 -95.1,-41.96 -95.1,-120.28 0,-77.39 39.16,-119.34 95.1,-119.34 55.94,0 95.1,41.96 95.1,119.34zm152.91 1.86c0,-162.23 -109.09,-248.95 -248.02,-248.95 -138.93,0 -248.02,86.71 -248.02,248.95 0,163.17 109.09,250.82 248.02,250.82 138.93,0 248.02,-87.65 248.02,-250.82zm18.65 131.47l0 110.96 255.48 0 0 -110.96 -51.28 0 0 -201.39c13.98,-32.63 32.63,-59.67 63.4,-59.67 44.75,0 65.27,32.63 65.27,118.41l0 253.61 200.46 0 0 -110.96 -51.28 0 0 -179.95c0,-7.46 0,-14.92 -0.93,-21.44 13.98,-33.56 33.56,-59.67 63.4,-59.67 45.68,0 66.2,32.63 66.2,118.41l0 253.61 204.2 0 0 -110.96 -55.01 0 0 -179.95c0,-134.26 -58.74,-201.4 -164.1,-201.4 -63.4,0 -106.29,36.36 -135.2,83.92 -26.11,-55.95 -73.66,-83.92 -142.65,-83.92 -49.42,0 -84.85,22.38 -113.75,55.01l0 -45.68 -204.2 0 0 110.02 55.01 0 0 262 -55.01 0zm827.96 -262l55.01 0 0 433.56 -55.01 0 0 110.02 259.21 0 0 -110.02 -55.01 0 0 -110.02c32.63,38.23 77.39,57.81 134.26,57.81 119.34,0 206.06,-87.65 206.06,-250.82 0,-162.23 -86.71,-248.95 -206.99,-248.95 -55.01,0 -99.77,19.58 -133.33,58.74l0 -50.35 -204.2 0 0 110.02zm204.2 81.12c12.12,-43.82 45.68,-67.13 87.64,-67.13 58.74,0 99.77,41.96 99.77,119.34 0,77.39 -41.03,120.28 -99.77,120.28 -41.03,0 -73.66,-23.31 -87.64,-65.27l0 -107.22zm382.28 49.41c0,163.17 86.71,250.82 205.13,250.82 55.94,0 100.7,-18.65 134.26,-55.01l0 46.62 204.2 0 0 -110.96 -55.01 0 0 -372.02 -149.18 0 0 48.48c-32.63,-38.23 -76.45,-56.88 -133.33,-56.88 -119.35,0 -206.06,86.71 -206.06,248.95zm251.75 -116.55c41.95,0 73.66,23.31 87.64,64.33l0 111.89c-13.99,40.09 -47.55,63.4 -87.64,63.4 -56.88,0 -98.84,-42.89 -98.84,-120.28 0,-77.39 41.96,-119.34 98.84,-119.34zm323.54 -124.01l0 110.02 55.01 0 0 262 -55.01 0 0 110.96 259.2 0 0 -110.96 -55.01 0 0 -75.52c10.25,-107.22 70.86,-161.3 156.64,-161.3 10.26,0 17.71,0.94 27.97,1.87l0 -144.52c-6.53,-0.93 -13.05,-0.93 -19.58,-0.93 -74.59,0 -127.74,39.16 -165.03,96.04l0 -87.64 -204.19 0zm402.79 240.55c0,163.17 101.63,250.82 250.81,250.82 84.85,0 145.46,-22.38 197.67,-62.47l-34.5 -116.55c-40.09,28.9 -78.32,50.35 -130.53,50.35 -68.07,0 -110.02,-29.83 -124.01,-81.12l312.35 0c0.93,-13.99 1.86,-38.23 1.86,-52.21 2.8,-141.72 -71.79,-237.76 -225.64,-237.76 -142.66,0 -248.02,86.71 -248.02,248.95zm155.71 -37.3c10.26,-56.87 44.76,-91.37 96.97,-91.37 65.27,0 96.04,42.89 96.04,91.37l-193.01 0z"/>
   <path class="fil1" d="M411.85 336.11c-8.12,-4.46 -76.03,-79.04 -92.05,-96.1 -11.37,-12.11 -18.3,-24.42 -36.03,-28.97 -37.77,-9.69 -68.88,25.47 -54.34,61.54 6,14.88 103.35,114.54 121.66,134.02 54.6,58.07 63.2,55.92 113.99,6.09 11.86,-11.64 22.35,-22.36 32.66,-32.93 21.46,-22.01 42.61,-42.58 64.3,-64.27 43.27,-43.26 83.7,-84.51 126.71,-127.44 10.72,-10.7 20.83,-20.74 31.41,-31.46 10.67,-10.8 20.72,-20.79 20.33,-39.88 -0.73,-36.01 -41.28,-59.09 -72.72,-35.41 -25.53,19.22 -233.42,238.51 -255.93,254.81z"/>
   <path class="fil2" d="M105.61 700.64l0 0c17.84,18.02 47.18,18.17 65.19,0.33l137.23 -135.84c0.69,-0.61 1.36,-1.25 2.02,-1.92l0 0c3.72,-3.76 6.66,-8.02 8.82,-12.56 8.2,-17.08 5.31,-38.28 -8.74,-52.47l0 0c-1.06,-1.07 -2.17,-2.08 -3.31,-3.03l-136.1 -134.73c-18.02,-17.84 -47.36,-17.69 -65.2,0.33l0 0c-17.84,18.02 -17.69,47.36 0.33,65.2l105.86 104.79 -105.77 104.71c-18.02,17.84 -18.17,47.18 -0.33,65.2z"/>
   <path class="fil2" d="M716.42 700.64l0 0c-17.84,18.02 -47.18,18.17 -65.2,0.33l-137.22 -135.84c-0.69,-0.61 -1.36,-1.25 -2.02,-1.92l0 0c-3.72,-3.76 -6.66,-8.02 -8.82,-12.56 -8.2,-17.08 -5.31,-38.28 8.74,-52.47l0 0c1.06,-1.07 2.17,-2.08 3.31,-3.03l136.1 -134.73c18.02,-17.84 47.36,-17.69 65.2,0.33l0 0c17.84,18.02 17.69,47.36 -0.33,65.2l-105.86 104.79 105.77 104.71c18.02,17.84 18.17,47.18 0.33,65.2z"/>
   <path class="fil2" d="M238.64 837.37l0 0c-18.02,-17.84 -18.17,-47.18 -0.33,-65.2l135.84 -137.22c0.61,-0.69 1.25,-1.36 1.92,-2.02l0 0c3.76,-3.72 8.02,-6.66 12.56,-8.82 17.08,-8.2 38.29,-5.31 52.48,8.74l0 0c1.07,1.06 2.08,2.17 3.03,3.31l134.73 136.1c17.84,18.02 17.69,47.36 -0.33,65.2l0 0c-18.02,17.84 -47.35,17.69 -65.19,-0.33l-104.79 -105.86 -104.7 105.77c-17.84,18.02 -47.18,18.17 -65.2,0.33z"/>
  </g>
  <rect class="fil3" x="-0" y="-0" width="5623.2" height="1105.22"/>
 </g>
</svg>
