<svg xmlns="http://www.w3.org/2000/svg" viewBox="70 230 680 620" fill="none">
  <path fill="#ffffff" d="M411.85 336.11c-8.12,-4.46 -76.03,-79.04 -92.05,-96.1 -11.37,-12.11 -18.3,-24.42 -36.03,-28.97 -37.77,-9.69 -68.88,25.47 -54.34,61.54 6,14.88 103.35,114.54 121.66,134.02 54.6,58.07 63.2,55.92 113.99,6.09 11.86,-11.64 22.35,-22.36 32.66,-32.93 21.46,-22.01 42.61,-42.58 64.3,-64.27 43.27,-43.26 83.7,-84.51 126.71,-127.44 10.72,-10.7 20.83,-20.74 31.41,-31.46 10.67,-10.8 20.72,-20.79 20.33,-39.88 -0.73,-36.01 -41.28,-59.09 -72.72,-35.41 -25.53,19.22 -233.42,238.51 -255.93,254.81z"/>
  <path fill="#ffffff" d="M105.61 700.64l0 0c17.84,18.02 47.18,18.17 65.19,0.33l137.23 -135.84c0.69,-0.61 1.36,-1.25 2.02,-1.92l0 0c3.72,-3.76 6.66,-8.02 8.82,-12.56 8.2,-17.08 5.31,-38.28 -8.74,-52.47l0 0c-1.06,-1.07 -2.17,-2.08 -3.31,-3.03l-136.1 -134.73c-18.02,-17.84 -47.36,-17.69 -65.2,0.33l0 0c-17.84,18.02 -17.69,47.36 0.33,65.2l105.86 104.79 -105.77 104.71c-18.02,17.84 -18.17,47.18 -0.33,65.2z"/>
  <path fill="#ffffff" d="M716.42 700.64l0 0c-17.84,18.02 -47.18,18.17 -65.2,0.33l-137.22 -135.84c-0.69,-0.61 -1.36,-1.25 -2.02,-1.92l0 0c-3.72,-3.76 -6.66,-8.02 -8.82,-12.56 -8.2,-17.08 -5.31,-38.28 8.74,-52.47l0 0c1.06,-1.07 2.17,-2.08 3.31,-3.03l136.1 -134.73c18.02,-17.84 47.36,-17.69 65.2,0.33l0 0c17.84,18.02 17.69,47.36 -0.33,65.2l-105.86 104.79 105.77 104.71c18.02,17.84 18.17,47.18 0.33,65.2z"/>
  <path fill="#ffffff" d="M238.64 837.37l0 0c-18.02,-17.84 -18.17,-47.18 -0.33,-65.2l135.84 -137.22c0.61,-0.69 1.25,-1.36 1.92,-2.02l0 0c3.76,-3.72 8.02,-6.66 12.56,-8.82 17.08,-8.2 38.29,-5.31 52.48,8.74l0 0c1.07,1.06 2.08,2.17 3.03,3.31l134.73 136.1c17.84,18.02 17.69,47.36 -0.33,65.2l0 0c-18.02,17.84 -47.35,17.69 -65.19,-0.33l-104.79 -105.86 -104.7 105.77c-17.84,18.02 -47.18,18.17 -65.2,0.33z"/>
</svg>
