<?xml version="1.0" encoding="UTF-8"?>
<!DOCTYPE svg PUBLIC "-//W3C//DTD SVG 1.1//EN" "http://www.w3.org/Graphics/SVG/1.1/DTD/svg11.dtd">
<!-- Creator: CorelDRAW -->
<svg xmlns="http://www.w3.org/2000/svg" xml:space="preserve" width="5.98334in" height="1.08766in" version="1.1" style="shape-rendering:geometricPrecision; text-rendering:geometricPrecision; image-rendering:optimizeQuality; fill-rule:evenodd; clip-rule:evenodd"
viewBox="0 0 4336.62 788.32"
 xmlns:xlink="http://www.w3.org/1999/xlink"
 xmlns:xodm="http://www.corel.com/coreldraw/odm/2003">
 <defs>
  <style type="text/css">
   <![CDATA[
    .fil0 {fill:none}
    .fil2 {fill:#0A27C9}
    .fil3 {fill:#25A36F}
    .fil1 {fill:#0A27C9;fill-rule:nonzero}
   ]]>
  </style>
 </defs>
 <g id="Layer_x0020_1">
  <metadata id="CorelCorpID_0Corel-Layer"/>
  <polygon class="fil0" points="-0,788.32 4336.62,788.32 4336.62,0 -0,0 "/>
  <path class="fil1" d="M56.24 396.31c0,162.76 104.94,246.29 254.14,246.29 72.1,0 134.21,-19.99 177.75,-47.83l-24.99 -98.51c-33.55,22.13 -84.23,42.12 -142.06,42.12 -88.52,0 -143.49,-53.54 -143.49,-142.06 0,-87.09 54.97,-141.35 125.64,-141.35 19.99,0 39.26,0.71 56.4,2.86l7.85 111.36 113.51 0 0 -192.03c-55.68,-15.71 -100.66,-25.7 -175.61,-25.7 -142.78,0 -249.14,82.1 -249.14,244.86zm3144.6 -140.63l110.65 137.06 -111.37 145.63 -57.11 0 0 97.8 224.15 0 0 -97.8 -36.41 0 62.11 -87.09 62.11 87.09 -36.41 0 0 97.8 224.15 0 0 -97.8 -57.82 0 -110.65 -145.63 110.65 -137.06 57.82 0 0 -97.8 -224.15 0 0 97.8 38.55 0 -64.25 84.24 -64.96 -84.24 39.26 0 0 -97.8 -224.15 0 0 97.8 57.82 0zm-2412.88 193.46c0,59.97 -29.98,92.09 -72.81,92.09 -42.83,0 -72.81,-32.12 -72.81,-92.09 0,-59.25 29.98,-91.38 72.81,-91.38 42.83,0 72.81,32.12 72.81,91.38zm117.08 1.43c0,-124.21 -83.52,-190.6 -189.89,-190.6 -106.37,0 -189.89,66.39 -189.89,190.6 0,124.93 83.52,192.03 189.89,192.03 106.37,0 189.89,-67.11 189.89,-192.03zm14.28 100.66l0 84.95 195.6 0 0 -84.95 -39.26 0 0 -154.2c10.71,-24.99 24.99,-45.69 48.54,-45.69 34.26,0 49.97,24.99 49.97,90.66l0 194.17 153.48 0 0 -84.95 -39.26 0 0 -137.78c0,-5.71 0,-11.42 -0.71,-16.42 10.71,-25.7 25.7,-45.69 48.54,-45.69 34.98,0 50.68,24.99 50.68,90.66l0 194.17 156.34 0 0 -84.95 -42.12 0 0 -137.78c0,-102.8 -44.97,-154.2 -125.64,-154.2 -48.54,0 -81.38,27.84 -103.51,64.25 -19.99,-42.83 -56.4,-64.25 -109.22,-64.25 -37.83,0 -64.96,17.13 -87.09,42.12l0 -34.98 -156.34 0 0 84.24 42.12 0 0 200.6 -42.12 0zm633.92 -200.6l42.12 0 0 331.95 -42.12 0 0 84.24 198.46 0 0 -84.24 -42.12 0 0 -84.23c24.99,29.27 59.25,44.26 102.8,44.26 91.37,0 157.77,-67.11 157.77,-192.03 0,-124.21 -66.39,-190.6 -158.48,-190.6 -42.12,0 -76.38,14.99 -102.08,44.97l0 -38.55 -156.34 0 0 84.24zm156.34 62.11c9.28,-33.55 34.98,-51.4 67.1,-51.4 44.97,0 76.38,32.12 76.38,91.38 0,59.25 -31.41,92.09 -76.38,92.09 -31.41,0 -56.4,-17.85 -67.1,-49.97l0 -82.09zm292.69 37.83c0,124.93 66.39,192.03 157.05,192.03 42.83,0 77.1,-14.28 102.8,-42.12l0 35.69 156.34 0 0 -84.95 -42.12 0 0 -284.83 -114.22 0 0 37.12c-24.99,-29.27 -58.54,-43.55 -102.08,-43.55 -91.38,0 -157.77,66.39 -157.77,190.6zm192.75 -89.23c32.12,0 56.39,17.85 67.1,49.26l0 85.67c-10.71,30.69 -36.41,48.54 -67.1,48.54 -43.55,0 -75.67,-32.84 -75.67,-92.09 0,-59.25 32.12,-91.38 75.67,-91.38zm247.71 -94.94l0 84.24 42.12 0 0 200.6 -42.12 0 0 84.95 198.46 0 0 -84.95 -42.12 0 0 -57.82c7.85,-82.09 54.25,-123.5 119.93,-123.5 7.85,0 13.56,0.72 21.42,1.43l0 -110.65c-5,-0.71 -9.99,-0.71 -14.99,-0.71 -57.11,0 -97.8,29.98 -126.35,73.53l0 -67.1 -156.34 0zm308.39 184.18c0,124.93 77.81,192.03 192.03,192.03 64.96,0 111.37,-17.14 151.34,-47.83l-26.41 -89.23c-30.69,22.13 -59.97,38.55 -99.94,38.55 -52.11,0 -84.24,-22.84 -94.95,-62.11l239.15 0c0.71,-10.71 1.43,-29.27 1.43,-39.98 2.14,-108.51 -54.97,-182.04 -172.76,-182.04 -109.22,0 -189.89,66.39 -189.89,190.6zm119.22 -28.55c7.85,-43.55 34.27,-69.96 74.24,-69.96 49.97,0 73.53,32.84 73.53,69.96l-147.77 0z"/>
  <g id="_2690706724048">
   <path class="fil2" d="M4023.48 246.99c-6.95,-3.82 -65.07,-67.64 -78.78,-82.25 -9.73,-10.36 -15.66,-20.9 -30.84,-24.79 -32.33,-8.29 -58.96,21.79 -46.51,52.67 5.13,12.73 88.45,98.03 104.13,114.71 46.73,49.7 54.09,47.86 97.56,5.21 10.15,-9.96 19.13,-19.14 27.95,-28.18 18.36,-18.84 36.47,-36.44 55.04,-55.01 37.03,-37.02 71.63,-72.33 108.45,-109.07 9.18,-9.16 17.82,-17.75 26.88,-26.93 9.13,-9.25 17.73,-17.79 17.4,-34.13 -0.62,-30.82 -35.33,-50.57 -62.24,-30.31 -21.85,16.45 -199.78,204.13 -219.05,218.08z"/>
   <g>
    <path class="fil3" d="M3761.37 558.98l0 0c15.27,15.42 40.38,15.55 55.8,0.28l117.45 -116.26c0.59,-0.53 1.16,-1.07 1.73,-1.64l0 0c3.19,-3.22 5.7,-6.86 7.55,-10.75 7.02,-14.62 4.55,-32.77 -7.48,-44.91l0 0c-0.91,-0.92 -1.85,-1.78 -2.83,-2.59l-116.48 -115.31c-15.42,-15.27 -40.53,-15.14 -55.8,0.28l0 0c-15.27,15.42 -15.14,40.53 0.28,55.8l90.59 89.68 -90.53 89.62c-15.42,15.27 -15.55,40.38 -0.28,55.8z"/>
    <path class="fil3" d="M4284.16 558.98l0 0c-15.27,15.42 -40.38,15.55 -55.8,0.28l-117.45 -116.26c-0.59,-0.53 -1.16,-1.07 -1.73,-1.64l0 0c-3.18,-3.22 -5.7,-6.86 -7.54,-10.75 -7.02,-14.62 -4.55,-32.77 7.48,-44.91l0 0c0.91,-0.92 1.85,-1.78 2.83,-2.59l116.49 -115.31c15.42,-15.27 40.53,-15.14 55.8,0.28l0 0c15.27,15.42 15.14,40.53 -0.28,55.8l-90.6 89.68 90.53 89.62c15.42,15.27 15.55,40.38 0.28,55.8z"/>
    <path class="fil3" d="M3875.24 676l0 0c-15.42,-15.27 -15.55,-40.38 -0.28,-55.8l116.26 -117.45c0.53,-0.59 1.07,-1.17 1.64,-1.73l0 0c3.22,-3.19 6.86,-5.7 10.75,-7.55 14.62,-7.02 32.77,-4.54 44.91,7.48l0 0c0.92,0.91 1.78,1.85 2.59,2.83l115.31 116.48c15.27,15.42 15.14,40.53 -0.28,55.8l0 0c-15.42,15.27 -40.53,15.14 -55.8,-0.28l-89.68 -90.6 -89.62 90.53c-15.27,15.42 -40.38,15.55 -55.8,0.28z"/>
   </g>
  </g>
 </g>
</svg>
